<?xml version="1.0" encoding="utf-8"?>
<!-- Generator: Adobe Illustrator 19.1.1, SVG Export Plug-In . SVG Version: 6.00 Build 0)  -->
<svg version="1.1" id="Laag_1" xmlns="http://www.w3.org/2000/svg" xmlns:xlink="http://www.w3.org/1999/xlink" x="0px" y="0px"
	 viewBox="215.98 251.9 410.72 91.02" style="enable-background:new 0 0 841.9 595.3;" xml:space="preserve">
<style type="text/css">
	.st0{fill:none;stroke:#000000;stroke-width:3;stroke-miterlimit:10;}
</style>
<g>
	<g>
		<path d="M384.1,331.1l-7.8-20h-25.2l-7.7,20H336l24.8-63.1h6.1l24.7,63.1H384.1z M374,304.5l-7.3-19.5c-0.9-2.5-1.9-5.5-2.9-9.1
			c-0.6,2.8-1.5,5.8-2.7,9.1l-7.4,19.5H374z"/>
		<path d="M445.8,286.6c0,6.4-2.2,11.3-6.5,14.7c-4.3,3.4-10.5,5.1-18.6,5.1h-7.4v24.7H406v-62.8h16.3
			C437.9,268.3,445.8,274.4,445.8,286.6z M413.3,300.1h6.6c6.5,0,11.2-1,14.1-3.1c2.9-2.1,4.3-5.4,4.3-10.1c0-4.2-1.4-7.2-4.1-9.3
			c-2.7-2-7-3.1-12.7-3.1h-8.2V300.1z"/>
		<path d="M464.6,331.1v-62.8h7.3v62.8H464.6z"/>
		<path d="M542.2,268.3v40.6c0,7.2-2.2,12.8-6.5,16.9c-4.3,4.1-10.3,6.1-17.8,6.1s-13.4-2.1-17.6-6.2s-6.2-9.8-6.2-17v-40.5h7.3v41
			c0,5.2,1.4,9.3,4.3,12.1c2.9,2.8,7.1,4.2,12.6,4.2c5.3,0,9.4-1.4,12.2-4.2c2.9-2.8,4.3-6.9,4.3-12.1v-40.9H542.2z"/>
		<path d="M592.2,331.1l-21.3-55.7h-0.3c0.4,4.4,0.6,9.7,0.6,15.7v40h-6.7v-62.8h11l19.9,51.8h0.3l20.1-51.8h10.9v62.8h-7.3v-40.5
			c0-4.6,0.2-9.7,0.6-15.1h-0.3l-21.5,55.6H592.2z"/>
	</g>
	<g>
		<path class="st0" d="M252,308.4c4.2,0.1,4.8,0.3,5.4,0.4c6.1,0.7,12.5-1.2,18.2,1c4.1,1.6,7.5,4.7,10.4,8.1c0.4,0.5,0.8,1,1,1.6
			c0.3,0.8,0.2,1.7,0.2,2.6c-0.1,5.8,3.6,11,4.2,16.8c0.1,0.7,0.1,1.4-0.4,1.9c-0.3,0.3-0.7,0.5-1.1,0.6c-3.7,1-7.8-0.6-11.3,0.7
			c-0.6,0.2-1.2,0.5-1.8,0.7c-0.7,0.2-1.5,0.1-2.2,0.1c-1.4-0.1-2.9-0.2-4.3-0.6c-1.4-0.4-2.7-1.3-3.3-2.6c-1-2-0.4-4.7-1.9-6.4
			c-0.1-0.1-0.2-0.3-0.4-0.3c-0.7-0.3-1.5,0.4-1.7,1.2s-0.1,1.6-0.4,2.4c-0.5,1-1.8,1.4-2.9,1.2c-1.1-0.2-2.1-0.7-3.1-1.1
			c-1.3-0.5-2.7-0.8-4.1-0.9c-1.2-0.1-2.6,0-3.5-0.9c-0.7-0.7-0.7-1.8-0.7-2.8c0-1.5,0-3,0-4.6c0-1.7,0-3.4-0.1-5
			c-0.1-1.3-0.4-2.5-0.4-3.8c-0.1-2.6,0.7-5.2,1.4-7.8"/>
		<path class="st0" d="M250.3,303.7c-0.6-3-1.5-7-0.7-9.9c0.5-2,1.6-3.7,2.2-5.6c0.7-2,0.8-4.1,1.3-6.1c0.6-2.7,1.6-5.4,1.6-8.2
			c0-2.8-1.5-5.9-4.1-6.6c-1-0.3-2.1-0.2-2.9-0.8c-0.7-0.6-1-1.5-1-2.4c0-0.9,0.3-1.8,0.4-2.7c0.2-1.2,0.1-2.4-0.5-3.5
			c-0.9-1.8-3-2.8-4.9-3.5c-1-0.4-1.9-0.8-2.9-1.2c-0.5-0.2-0.9-0.4-1.4-0.3c-0.5,0.1-0.9,0.3-1.3,0.7c-2,1.6-3.4,4.1-3.6,6.7
			c-0.1,0.9,0,1.8-0.3,2.6c-0.3,0.8-1,1.6-1.8,1.6c-0.8,0-1.5-0.6-2.2-0.9c-1.2-0.5-2.5-0.3-3.7,0.2c-0.9,0.4-1.8,1.1-1.8,2.1
			c0,1.3,1.6,2.4,1,3.5c-0.3,0.6-1.1,0.8-1.7,0.7c-0.7-0.1-1.3-0.3-1.9-0.3c-1.2,0-2.2,0.8-2.8,1.8c-0.6,1-0.8,2.2-0.9,3.3
			c-0.4,2.5-0.6,5-0.2,7.5c0.3,2.5,1.3,4.9,3,6.7c0.3,0.3,0.6,0.7,0.3,1c-0.3,0.4-0.3,0.7-0.2,1.1c0.4,0.6-0.3,0.8,0.1,1.4
			c0.5,0.8,1.4,1.2,2.2,1.5c7.6,3.3,15.6,6.2,21.7,11.8c0.9,0.8,1.9,1.7,3,1.5"/>
		<path class="st0" d="M265.5,297.3c4,0.1,7.4,2.6,10.2,5.5c2.7,2.9,5.1,6.2,8.4,8.4c1.3,0.9,2.7,1.6,4.2,1.8
			c1.9,0.2,3.8-0.5,5.5-1.3c2.8-1.3,5.5-2.8,8-4.7c0.8-0.6,1.7-1.4,1.6-2.5c-0.2-1.2-1.6-1.6-2.4-2.5c-1-1-1.2-2.6-1.9-3.8
			c-2.4-4-9.5-2.6-12.1-6.5c-0.2-0.3-0.3-0.6-0.3-0.9c0.1-0.4,0.6-0.7,1-0.8c1.4-0.5,2.9-0.8,4.4-0.8c1.3,0,2.7,0.2,4-0.1
			c2.6-0.6,4.3-3.1,5.8-5.3c0.9-1.4,1.8-2.8,2.8-4.3c0.7-1,1.4-2.1,1.6-3.3c0.3-1.2,0.1-2.6,0.8-3.7c0.5-0.8,1.4-1.2,2.2-1.8
			c0.7-0.6,1.4-1.5,1.1-2.4c-0.1-0.3-0.4-0.6-0.5-0.9c-0.4-1,0.4-2.1,1.2-2.8c1.2-1.2,2.3-2.4,3.5-3.5c0.8-0.8,1.6-2,1-2.9
			c-0.2-0.4-0.7-0.6-1.1-0.8c-1.7-0.7-3.6-0.7-5.2,0c-1,0.4-2,1.1-3,0.8c-1-0.3-1.6-1.4-2.5-2c-2.4-1.5-5.5,1.6-8.4,0.9
			c-1.8-0.4-3.3-2.3-5.1-1.8c-0.7,0.2-1.4,0.5-1.9,1c-6.5,8.2-4,7.7-5-1.8c-0.1-1.2-0.7-1.9-0.9-1.9c-0.5,0.2-0.9-0.5-1.3-0.6
			c-3.8-0.6-7.6,1.7-11.5,1.7c-0.7,0-1.4,0-1.9,0.4c-0.2,0.2-0.3,0.5-0.4,0.7c-0.7,2.1-0.5,4.3-0.6,6.5c-0.1,2.2-0.5,4.5-2.2,6
			c-0.5,0.4-1,0.8-1.4,1.3c-0.4,0.5-0.6,1.1-0.7,1.7c-1,4-0.8,8.3-0.7,12.4c0.2,4.9-1.8,7.1,1.8,10.4"/>
		<path class="st0" d="M228.1,338.6C228.1,338.6,226.1,339.5,228.1,338.6c2-0.8,8.6-14,16-22.7c7.4-8.7,21.3-19.2,26.1-21.8
			c4.8-2.6-1.5-6.2-3.4-3.9c-1.9,2.3-13.6,10.7-22.7,20c-9,9.3-18.8,23.8-18.4,25.5c0.3,1.7,1.5,3.1,1.5,3.1"/>
	</g>
</g>
</svg>
